<svg width="512" height="512" viewBox="0 0 512 512" fill="none" xmlns="http://www.w3.org/2000/svg">
  <!-- Catalog items background -->
  <rect x="48" y="180" width="416" height="284" rx="16" fill="#1e293b"/>
  
  <!-- Product Grid (3x2) -->
  <!-- Row 1 -->
  <rect x="72" y="204" width="116" height="116" rx="8" fill="#334155"/>
  <rect x="198" y="204" width="116" height="116" rx="8" fill="#334155"/>
  <rect x="324" y="204" width="116" height="116" rx="8" fill="#334155"/>
  
  <!-- Row 2 -->
  <rect x="72" y="330" width="116" height="116" rx="8" fill="#334155"/>
  <rect x="198" y="330" width="116" height="116" rx="8" fill="#334155"/>
  <rect x="324" y="330" width="116" height="116" rx="8" fill="#334155"/>
  
  <!-- Product details (horizontal lines in cards) -->
  <rect x="82" y="270" width="96" height="6" rx="3" fill="#475569"/>
  <rect x="82" y="285" width="70" height="6" rx="3" fill="#475569"/>
  <rect x="82" y="300" width="50" height="8" rx="4" fill="#22d3ee"/>
  
  <rect x="208" y="270" width="96" height="6" rx="3" fill="#475569"/>
  <rect x="208" y="285" width="70" height="6" rx="3" fill="#475569"/>
  
  <rect x="334" y="270" width="96" height="6" rx="3" fill="#475569"/>
  <rect x="334" y="285" width="70" height="6" rx="3" fill="#475569"/>
  
  <rect x="82" y="396" width="96" height="6" rx="3" fill="#475569"/>
  <rect x="208" y="396" width="96" height="6" rx="3" fill="#475569"/>
  <rect x="334" y="396" width="96" height="6" rx="3" fill="#475569"/>
  
  <!-- Shopping cart floating (top right) -->
  <g filter="url(#shadow)">
    <circle cx="400" cy="100" r="52" fill="#0c4a6e"/>
    <circle cx="400" cy="100" r="48" fill="#164e63"/>
    
    <!-- Cart icon -->
    <path d="M380 85H420L415 115H385L380 85Z" fill="#22d3ee"/>
    <path d="M380 85H420L415 115H385L380 85Z" stroke="#22d3ee" stroke-width="2" stroke-linejoin="round"/>
    <path d="M390 85V80C390 74.4772 394.477 70 400 70C405.523 70 410 74.4772 410 80V85" stroke="#22d3ee" stroke-width="2" stroke-linecap="round"/>
    <circle cx="390" cy="120" r="2" fill="#22d3ee"/>
    <circle cx="410" cy="120" r="2" fill="#22d3ee"/>
  </g>
  
  <!-- Checkmark badge -->
  <circle cx="428" cy="76" r="14" fill="#10b981"/>
  <path d="M423 76L426 79L433 72" stroke="white" stroke-width="2" stroke-linecap="round" stroke-linejoin="round"/>
  
  <!-- Document/Request lines (left) -->
  <rect x="72" y="60" width="200" height="90" rx="8" fill="#0f172a" opacity="0.7"/>
  <rect x="92" y="80" width="160" height="8" rx="4" fill="#22d3ee" opacity="0.5"/>
  <rect x="92" y="96" width="120" height="6" rx="3" fill="#64748b"/>
  <rect x="92" y="110" width="140" height="6" rx="3" fill="#64748b"/>
  <rect x="92" y="124" width="100" height="6" rx="3" fill="#64748b"/>
  
  <!-- Shadow filter -->
  <defs>
    <filter id="shadow" x="340" y="44" width="120" height="120" filterUnits="userSpaceOnUse">
      <feDropShadow dx="0" dy="4" stdDeviation="6" flood-opacity="0.3"/>
    </filter>
  </defs>
</svg>